<mxfile host="65bd71144e">
    <diagram id="QoES3P1-Cr2JaXmbldnu" name="Page-1">
        <mxGraphModel dx="539" dy="487" grid="1" gridSize="10" guides="1" tooltips="1" connect="1" arrows="1" fold="1" page="1" pageScale="1" pageWidth="827" pageHeight="1169" math="0" shadow="0">
            <root>
                <mxCell id="0"/>
                <mxCell id="1" parent="0"/>
                <mxCell id="116" value="" style="rounded=1;whiteSpace=wrap;html=1;fillColor=#dae8fc;strokeColor=#6c8ebf;" vertex="1" parent="1">
                    <mxGeometry x="420" y="550" width="140" height="135" as="geometry"/>
                </mxCell>
                <mxCell id="122" style="edgeStyle=none;html=1;" edge="1" parent="1" source="117">
                    <mxGeometry relative="1" as="geometry">
                        <mxPoint x="610" y="645" as="targetPoint"/>
                    </mxGeometry>
                </mxCell>
                <mxCell id="117" value="mantissa" style="rounded=0;whiteSpace=wrap;html=1;dashed=1;" vertex="1" parent="1">
                    <mxGeometry x="480" y="625" width="60" height="40" as="geometry"/>
                </mxCell>
                <mxCell id="121" style="edgeStyle=none;html=1;" edge="1" parent="1" source="118">
                    <mxGeometry relative="1" as="geometry">
                        <mxPoint x="610" y="585" as="targetPoint"/>
                    </mxGeometry>
                </mxCell>
                <mxCell id="118" value="exponent" style="rounded=0;whiteSpace=wrap;html=1;dashed=1;" vertex="1" parent="1">
                    <mxGeometry x="480" y="565" width="60" height="40" as="geometry"/>
                </mxCell>
                <mxCell id="119" value="mantissa" style="rounded=0;whiteSpace=wrap;html=1;dashed=1;" vertex="1" parent="1">
                    <mxGeometry x="490" y="635" width="60" height="40" as="geometry"/>
                </mxCell>
                <mxCell id="120" value="input" style="text;strokeColor=none;align=center;fillColor=none;html=1;verticalAlign=middle;whiteSpace=wrap;rounded=0;" vertex="1" parent="1">
                    <mxGeometry x="420" y="550" width="60" height="30" as="geometry"/>
                </mxCell>
                <mxCell id="123" value="mxint exp" style="rounded=1;whiteSpace=wrap;html=1;fillColor=#f5f5f5;fontColor=#333333;strokeColor=#666666;" vertex="1" parent="1">
                    <mxGeometry x="610" y="552.5" width="80" height="130" as="geometry"/>
                </mxCell>
                <mxCell id="125" style="edgeStyle=none;html=1;" edge="1" parent="1">
                    <mxGeometry relative="1" as="geometry">
                        <mxPoint x="730" y="643" as="targetPoint"/>
                        <mxPoint x="690" y="642.5" as="sourcePoint"/>
                    </mxGeometry>
                </mxCell>
                <mxCell id="126" style="edgeStyle=none;html=1;" edge="1" parent="1">
                    <mxGeometry relative="1" as="geometry">
                        <mxPoint x="730" y="585" as="targetPoint"/>
                        <mxPoint x="690" y="584.57" as="sourcePoint"/>
                    </mxGeometry>
                </mxCell>
                <mxCell id="127" value="mxint split" style="rounded=1;whiteSpace=wrap;html=1;fillColor=#f5f5f5;fontColor=#333333;strokeColor=#666666;" vertex="1" parent="1">
                    <mxGeometry x="730" y="552.5" width="80" height="132.5" as="geometry"/>
                </mxCell>
                <mxCell id="132" value="mxint adder tree" style="rounded=1;whiteSpace=wrap;html=1;fillColor=#f5f5f5;fontColor=#333333;strokeColor=#666666;" vertex="1" parent="1">
                    <mxGeometry x="730" y="720" width="80" height="60" as="geometry"/>
                </mxCell>
                <mxCell id="136" value="mxint div" style="rounded=1;whiteSpace=wrap;html=1;fillColor=#f5f5f5;fontColor=#333333;strokeColor=#666666;" vertex="1" parent="1">
                    <mxGeometry x="850" y="550" width="80" height="140" as="geometry"/>
                </mxCell>
                <mxCell id="149" style="edgeStyle=none;html=1;entryX=0.5;entryY=0;entryDx=0;entryDy=0;" edge="1" parent="1">
                    <mxGeometry relative="1" as="geometry">
                        <mxPoint x="757" y="685" as="sourcePoint"/>
                        <mxPoint x="757" y="720" as="targetPoint"/>
                    </mxGeometry>
                </mxCell>
                <mxCell id="150" style="edgeStyle=none;html=1;entryX=0.5;entryY=0;entryDx=0;entryDy=0;" edge="1" parent="1">
                    <mxGeometry relative="1" as="geometry">
                        <mxPoint x="779.52" y="685" as="sourcePoint"/>
                        <mxPoint x="779.52" y="720" as="targetPoint"/>
                    </mxGeometry>
                </mxCell>
                <mxCell id="153" style="edgeStyle=none;html=1;" edge="1" parent="1">
                    <mxGeometry relative="1" as="geometry">
                        <mxPoint x="850" y="585.43" as="targetPoint"/>
                        <mxPoint x="810" y="585.0000000000001" as="sourcePoint"/>
                    </mxGeometry>
                </mxCell>
                <mxCell id="154" style="edgeStyle=none;html=1;" edge="1" parent="1">
                    <mxGeometry relative="1" as="geometry">
                        <mxPoint x="850" y="643.43" as="targetPoint"/>
                        <mxPoint x="810" y="642.93" as="sourcePoint"/>
                    </mxGeometry>
                </mxCell>
                <mxCell id="155" value="" style="rounded=1;whiteSpace=wrap;html=1;fillColor=#dae8fc;strokeColor=#6c8ebf;" vertex="1" parent="1">
                    <mxGeometry x="960" y="540" width="140" height="135" as="geometry"/>
                </mxCell>
                <mxCell id="156" value="output" style="text;strokeColor=none;align=center;fillColor=none;html=1;verticalAlign=middle;whiteSpace=wrap;rounded=0;" vertex="1" parent="1">
                    <mxGeometry x="1040" y="545" width="60" height="30" as="geometry"/>
                </mxCell>
                <mxCell id="157" value="exponent" style="rounded=0;whiteSpace=wrap;html=1;dashed=1;" vertex="1" parent="1">
                    <mxGeometry x="980" y="555" width="60" height="40" as="geometry"/>
                </mxCell>
                <mxCell id="158" value="mantissa" style="rounded=0;whiteSpace=wrap;html=1;dashed=1;" vertex="1" parent="1">
                    <mxGeometry x="980" y="615" width="60" height="40" as="geometry"/>
                </mxCell>
                <mxCell id="159" value="mantissa" style="rounded=0;whiteSpace=wrap;html=1;dashed=1;" vertex="1" parent="1">
                    <mxGeometry x="990" y="625" width="60" height="40" as="geometry"/>
                </mxCell>
                <mxCell id="160" style="edgeStyle=none;html=1;" edge="1" parent="1">
                    <mxGeometry relative="1" as="geometry">
                        <mxPoint x="979.9999999999998" y="580" as="targetPoint"/>
                        <mxPoint x="929.9999999999998" y="580" as="sourcePoint"/>
                        <Array as="points">
                            <mxPoint x="960" y="580"/>
                        </Array>
                    </mxGeometry>
                </mxCell>
                <mxCell id="161" style="edgeStyle=none;html=1;" edge="1" parent="1">
                    <mxGeometry relative="1" as="geometry">
                        <mxPoint x="979.9999999999998" y="639.1699999999998" as="targetPoint"/>
                        <mxPoint x="929.9999999999998" y="639.1699999999998" as="sourcePoint"/>
                        <Array as="points">
                            <mxPoint x="960" y="639.17"/>
                        </Array>
                    </mxGeometry>
                </mxCell>
                <mxCell id="164" value="mxint acc" style="rounded=1;whiteSpace=wrap;html=1;fillColor=#f5f5f5;fontColor=#333333;strokeColor=#666666;" vertex="1" parent="1">
                    <mxGeometry x="850" y="720" width="80" height="60" as="geometry"/>
                </mxCell>
                <mxCell id="166" style="edgeStyle=none;html=1;entryX=0;entryY=0.5;entryDx=0;entryDy=0;" edge="1" parent="1">
                    <mxGeometry relative="1" as="geometry">
                        <mxPoint x="810" y="730" as="sourcePoint"/>
                        <mxPoint x="850" y="730" as="targetPoint"/>
                    </mxGeometry>
                </mxCell>
                <mxCell id="167" style="edgeStyle=none;html=1;entryX=0;entryY=0.5;entryDx=0;entryDy=0;" edge="1" parent="1">
                    <mxGeometry relative="1" as="geometry">
                        <mxPoint x="810" y="770" as="sourcePoint"/>
                        <mxPoint x="850" y="770" as="targetPoint"/>
                    </mxGeometry>
                </mxCell>
                <mxCell id="169" style="edgeStyle=none;html=1;entryX=0.5;entryY=1;entryDx=0;entryDy=0;" edge="1" parent="1">
                    <mxGeometry relative="1" as="geometry">
                        <mxPoint x="870" y="720" as="sourcePoint"/>
                        <mxPoint x="870" y="690" as="targetPoint"/>
                    </mxGeometry>
                </mxCell>
                <mxCell id="170" style="edgeStyle=none;html=1;entryX=0.5;entryY=1;entryDx=0;entryDy=0;" edge="1" parent="1">
                    <mxGeometry relative="1" as="geometry">
                        <mxPoint x="910" y="720" as="sourcePoint"/>
                        <mxPoint x="910" y="690" as="targetPoint"/>
                    </mxGeometry>
                </mxCell>
            </root>
        </mxGraphModel>
    </diagram>
</mxfile>